<svg width="24" height="20" viewBox="0 0 24 20" fill="none" xmlns="http://www.w3.org/2000/svg">
<path fill-rule="evenodd" clip-rule="evenodd" d="M5.25279 17.9001C5.55735 17.9001 5.81679 18.1596 5.81679 18.4642C5.81679 18.6137 5.75736 18.7572 5.65159 18.8629C5.54582 18.9687 5.40237 19.0282 5.25279 19.0282C5.1032 19.0282 4.95975 18.9687 4.85398 18.8629C4.74821 18.7572 4.68878 18.6137 4.68878 18.4642C4.68878 18.1596 4.93694 17.9001 5.25279 17.9001ZM10.2161 17.9001C10.3656 17.9001 10.5091 17.9596 10.6149 18.0654C10.7207 18.1712 10.7801 18.3146 10.7801 18.4642C10.7801 18.6137 10.7207 18.7572 10.6149 18.8629C10.5091 18.9687 10.3656 19.0282 10.2161 19.0282C10.0665 19.0282 9.92303 18.9687 9.81726 18.8629C9.71148 18.7572 9.65205 18.6137 9.65205 18.4642C9.65205 18.1596 9.9115 17.9001 10.2161 17.9001ZM15.2019 17.9001C15.5065 17.9001 15.7659 18.1596 15.7659 18.4642C15.7659 18.6137 15.7065 18.7572 15.6007 18.8629C15.495 18.9687 15.3515 19.0282 15.2019 19.0282C15.0523 19.0282 14.9089 18.9687 14.8031 18.8629C14.6973 18.7572 14.6379 18.6137 14.6379 18.4642C14.6379 18.1596 14.8861 17.9001 15.2019 17.9001ZM7.73442 16.6255C7.88401 16.6255 8.02748 16.6849 8.13325 16.7907C8.23902 16.8965 8.29843 17.0399 8.29843 17.1895C8.29843 17.3391 8.23902 17.4825 8.13325 17.5883C8.02748 17.694 7.88401 17.7535 7.73442 17.7535C7.58484 17.7535 7.44139 17.694 7.33562 17.5883C7.22984 17.4825 7.17041 17.3391 7.17041 17.1895C7.17041 16.8849 7.41858 16.6255 7.73442 16.6255ZM12.709 16.6255C12.8586 16.6255 13.002 16.6849 13.1078 16.7907C13.2136 16.8965 13.273 17.0399 13.273 17.1895C13.273 17.3391 13.2136 17.4825 13.1078 17.5883C13.002 17.694 12.8586 17.7535 12.709 17.7535C12.5594 17.7535 12.4159 17.694 12.3102 17.5883C12.2044 17.4825 12.145 17.3391 12.145 17.1895C12.145 16.8849 12.3931 16.6255 12.709 16.6255ZM5.25279 15.4298C5.55735 15.4298 5.81679 15.6893 5.81679 15.9939C5.81679 16.1434 5.75736 16.2869 5.65159 16.3926C5.54582 16.4984 5.40237 16.5579 5.25279 16.5579C5.1032 16.5579 4.95975 16.4984 4.85398 16.3926C4.74821 16.2869 4.68878 16.1434 4.68878 15.9939C4.68878 15.6893 4.93694 15.4298 5.25279 15.4298ZM10.2161 15.4298C10.3656 15.4298 10.5091 15.4892 10.6149 15.5949C10.7207 15.7007 10.7801 15.8443 10.7801 15.9939C10.7801 16.1434 10.7207 16.2869 10.6149 16.3926C10.5091 16.4984 10.3656 16.5579 10.2161 16.5579C10.0665 16.5579 9.92303 16.4984 9.81726 16.3926C9.71148 16.2869 9.65205 16.1434 9.65205 15.9939C9.65205 15.6893 9.9115 15.4298 10.2161 15.4298ZM15.2019 15.4298C15.5065 15.4298 15.7659 15.6893 15.7659 15.9939C15.7659 16.1434 15.7065 16.2869 15.6007 16.3926C15.495 16.4984 15.3515 16.5579 15.2019 16.5579C15.0523 16.5579 14.9089 16.4984 14.8031 16.3926C14.6973 16.2869 14.6379 16.1434 14.6379 15.9939C14.6379 15.6893 14.8861 15.4298 15.2019 15.4298ZM17.6836 3.30364C18.5913 3.32445 19.4622 3.66654 20.1413 4.26918C20.8204 4.87182 21.2637 5.69582 21.3923 6.59462C21.5209 7.49341 21.3264 8.40866 20.8435 9.17755C20.3606 9.94644 19.6206 10.5191 18.7552 10.7936V10.8049C18.789 10.9402 18.8003 11.0756 18.8116 11.2109V11.3914C18.8067 12.2004 18.4915 12.9767 17.9312 13.5602C17.3708 14.1437 16.6079 14.4898 15.7998 14.5274H5.01589C4.26199 14.5075 3.54008 14.2186 2.9807 13.7128C2.42131 13.2069 2.06138 12.5175 1.96599 11.7694C1.87061 11.0213 2.04606 10.2639 2.46062 9.63388C2.87518 9.00387 3.50148 8.54297 4.22628 8.33456H4.29396L4.36166 8.31198L4.35037 8.22179V8.01868C4.35246 7.53089 4.46753 7.05019 4.68652 6.61431C4.90551 6.17842 5.22248 5.79925 5.61259 5.50639C6.0027 5.21354 6.45533 5.01502 6.93502 4.92641C7.41471 4.83779 7.90841 4.86152 8.3774 4.99567L8.49019 5.02941L8.5466 4.9618C8.96752 4.46326 9.48801 4.0582 10.0747 3.77264C10.6613 3.48708 11.3012 3.32737 11.9532 3.30364H12.145C13.2279 3.30364 14.2205 3.66458 15.0101 4.26243L15.0778 4.31875C15.7877 3.66445 16.7182 3.30204 17.6836 3.30364ZM12.145 4.20597C10.8703 4.20597 9.70846 4.81517 9.02036 5.8191C8.96051 5.90822 8.87084 5.97302 8.76747 6.00197C8.66409 6.03091 8.55378 6.02212 8.45636 5.97704C8.07616 5.80009 7.65417 5.73249 7.23775 5.78206C6.82133 5.83163 6.42697 5.99641 6.09894 6.25767C5.7709 6.51893 5.52217 6.86644 5.38067 7.26121C5.23918 7.65598 5.21051 8.08235 5.2979 8.4925L5.33176 8.61657C5.34311 8.68021 5.34064 8.74549 5.32454 8.80811C5.30844 8.87072 5.27908 8.92913 5.23843 8.9794C5.19778 9.02968 5.1468 9.07075 5.08894 9.09961C5.03109 9.12847 4.96771 9.14448 4.9031 9.1467C4.32647 9.17557 3.78286 9.42436 3.38416 9.84194C2.98546 10.2595 2.76203 10.8141 2.75986 11.3914C2.76261 11.9782 2.99385 12.5407 3.4045 12.9598C3.81516 13.3789 4.37294 13.6215 4.95951 13.6362H15.7095C16.2494 13.6056 16.7604 13.3821 17.1493 13.0064C17.5383 12.6306 17.7793 12.1276 17.8285 11.589C17.8777 11.0505 17.7318 10.5123 17.4174 10.0723C17.103 9.6323 16.641 9.31983 16.1156 9.19187C16.0566 9.17866 16.0009 9.15364 15.9517 9.11848C15.9025 9.08331 15.8609 9.03867 15.8294 8.98711C15.7978 8.93556 15.7769 8.87822 15.768 8.81843C15.759 8.75865 15.7621 8.6977 15.7772 8.63915C15.8449 8.36843 15.8787 8.07514 15.8787 7.79314C15.858 6.82276 15.4533 5.90013 14.7534 5.22769C14.0534 4.55525 13.1154 4.18783 12.145 4.20597ZM20.6954 11.0531L20.7066 11.0869L21.1917 11.8427C21.2544 11.9444 21.2742 12.0669 21.2467 12.1832C21.2192 12.2995 21.1467 12.4002 21.045 12.4632C20.9483 12.5256 20.8313 12.5487 20.7181 12.5277C20.6048 12.5068 20.5039 12.4432 20.4359 12.3502L20.4246 12.3165L19.9396 11.5607C19.8769 11.4589 19.8571 11.3365 19.8846 11.2202C19.9121 11.1038 19.9846 11.0031 20.0862 10.9402C20.183 10.8777 20.3 10.8547 20.4132 10.8756C20.5265 10.8966 20.6274 10.9601 20.6954 11.0531ZM17.6836 4.20597C16.9613 4.20037 16.2625 4.46148 15.7208 4.93921L15.7434 4.9618C16.1285 5.41694 16.4171 5.94562 16.5916 6.51572C16.7661 7.08581 16.8229 7.68538 16.7586 8.27811L16.736 8.39088V8.43605L16.7811 8.45863C17.4751 8.72186 18.0542 9.22107 18.4168 9.86865L18.4619 9.93626C19.123 9.72945 19.6896 9.29534 20.0613 8.71075C20.433 8.12617 20.5857 7.42893 20.4925 6.7425C20.3992 6.05608 20.066 5.42483 19.5519 4.96056C19.0378 4.49629 18.3759 4.22895 17.6836 4.20597ZM5.38814 1.91606C5.98648 1.933 6.57255 2.08975 7.09945 2.37377C7.62635 2.65779 8.07946 3.06126 8.42252 3.55177C8.55788 3.73226 8.51276 4.00291 8.28716 4.18339C8.18134 4.24071 8.05859 4.25858 7.94082 4.23379C7.82305 4.209 7.71791 4.14316 7.64418 4.04804C7.39144 3.67391 7.05258 3.36603 6.65606 3.15011C6.25955 2.93419 5.81699 2.81656 5.36559 2.80724C4.95022 2.7902 4.53616 2.86445 4.1526 3.0248C3.76904 3.18516 3.42532 3.42771 3.14567 3.73532C2.86602 4.04294 2.65725 4.40818 2.53407 4.80523C2.41089 5.20229 2.3763 5.62148 2.43274 6.03336C2.45023 6.13906 2.4275 6.24748 2.36904 6.33726C2.31058 6.42704 2.22063 6.49171 2.11689 6.51847C1.86559 6.61244 1.64236 6.76884 1.46829 6.97301C1.29421 7.17718 1.17503 7.42231 1.12198 7.68532C1.06892 7.94832 1.08375 8.22057 1.16507 8.47625C1.24638 8.73194 1.3915 8.96266 1.58672 9.1467C1.76721 9.29335 1.75593 9.57539 1.56417 9.75588C1.41752 9.95892 1.12424 9.94764 0.921196 9.75588C0.647667 9.4833 0.441524 9.15054 0.319165 8.78428C0.196807 8.41802 0.161601 8.02833 0.216365 7.64608C0.27113 7.26382 0.41435 6.89967 0.634622 6.5825C0.854894 6.26533 1.14615 6.00392 1.48521 5.8191C1.46098 5.29917 1.54573 4.7799 1.73402 4.29465C1.92231 3.8094 2.20998 3.36891 2.57856 3.0014C2.94714 2.63388 3.38849 2.34737 3.87428 2.16048C4.36007 1.97359 4.87957 1.89034 5.39943 1.91606H5.38814ZM22.6017 7.78185L22.6356 7.79314L23.5154 7.9961C23.6205 8.02971 23.7097 8.10073 23.766 8.19563C23.8223 8.29052 23.8419 8.40273 23.8211 8.51109C23.8002 8.61946 23.7404 8.7165 23.6529 8.78373C23.5654 8.85097 23.4563 8.88376 23.3462 8.87599H23.3011L22.4212 8.67289C22.3161 8.63927 22.227 8.56839 22.1707 8.4735C22.1143 8.37861 22.0947 8.2664 22.1156 8.15803C22.1364 8.04967 22.1962 7.95263 22.2837 7.88539C22.3712 7.81816 22.4804 7.78537 22.5904 7.79314L22.6017 7.78185ZM23.0529 3.77732C23.1154 3.87407 23.1385 3.9911 23.1176 4.10435C23.0966 4.2176 23.0331 4.31854 22.9401 4.3865L22.9176 4.39779L22.1505 4.88276C22.0488 4.94547 21.9263 4.96533 21.81 4.93784C21.6937 4.91034 21.593 4.83774 21.5301 4.73611C21.4709 4.64035 21.4497 4.52603 21.4706 4.41541C21.4915 4.3048 21.5529 4.20599 21.6429 4.13837L21.6767 4.11578L22.4438 3.64197C22.5442 3.57822 22.6657 3.55672 22.7818 3.58207C22.898 3.60741 22.9995 3.67756 23.0642 3.77732H23.0529ZM14.9312 1.89362L14.9425 1.91606L15.4275 2.68318C15.4902 2.78492 15.51 2.90739 15.4825 3.0237C15.455 3.14002 15.3825 3.24074 15.2809 3.30364C15.1851 3.3628 15.0707 3.384 14.9601 3.36313C14.8495 3.34226 14.7506 3.28072 14.683 3.19073L14.6605 3.15699L14.1754 2.40117C14.1127 2.29943 14.0929 2.17696 14.1204 2.06065C14.1479 1.94433 14.2204 1.84361 14.3221 1.78071C14.4188 1.71821 14.5358 1.69515 14.649 1.71613C14.7623 1.7371 14.8632 1.80062 14.9312 1.89362ZM19.1049 0.991148C19.3305 1.04755 19.4884 1.26182 19.4433 1.4987V1.53258L19.2402 2.40117C19.2066 2.50628 19.1356 2.59546 19.0407 2.65178C18.9458 2.7081 18.8336 2.7277 18.7252 2.70686C18.6169 2.68602 18.5199 2.6261 18.4527 2.53859C18.3854 2.45109 18.3526 2.34202 18.3604 2.23194V2.20936L18.5634 1.32961C18.5767 1.27182 18.6013 1.21721 18.6357 1.16892C18.6701 1.12062 18.7137 1.07958 18.764 1.04816C18.8143 1.01673 18.8703 0.995415 18.9288 0.985641C18.9872 0.975866 19.0471 0.977778 19.1049 0.991148Z" fill="#616161"/>
</svg>
