<svg width="24" height="18" viewBox="0 0 24 18" fill="none" xmlns="http://www.w3.org/2000/svg">
<path d="M19.7754 1.66128C20.0668 1.66128 20.2853 1.57387 20.431 1.39905C20.5767 1.22424 20.6495 1.02028 20.6495 0.787189C20.6495 0.554096 20.5767 0.36471 20.431 0.219028C20.2853 0.0733452 20.0668 0.00050354 19.7754 0.00050354H5.09066C4.7993 0.00050354 4.58077 0.0733452 4.43509 0.219028C4.28941 0.36471 4.21657 0.554096 4.21657 0.787189C4.21657 1.02028 4.28941 1.22424 4.43509 1.39905C4.58077 1.57387 4.7993 1.66128 5.09066 1.66128H19.7754ZM19.7754 18.0068C20.0668 18.0068 20.2853 17.934 20.431 17.7883C20.5767 17.6426 20.6495 17.4532 20.6495 17.2202C20.6495 16.9871 20.5767 16.7831 20.431 16.6083C20.2853 16.4335 20.0668 16.3461 19.7754 16.3461H5.09066C4.7993 16.3461 4.58077 16.4335 4.43509 16.6083C4.28941 16.7831 4.21657 16.9871 4.21657 17.2202C4.21657 17.4532 4.28941 17.6426 4.43509 17.7883C4.58077 17.934 4.7993 18.0068 5.09066 18.0068H19.7754ZM23.097 8.21699H1.76911C1.53601 8.21699 1.34663 8.28983 1.20095 8.43551C1.05526 8.58119 0.982422 8.77058 0.982422 9.00367C0.982422 9.23676 1.05526 9.42615 1.20095 9.57183C1.34663 9.71751 1.53601 9.79035 1.76911 9.79035H23.097C23.3301 9.79035 23.5195 9.71751 23.6652 9.57183C23.8108 9.42615 23.8837 9.23676 23.8837 9.00367C23.8837 8.77058 23.8108 8.58119 23.6652 8.43551C23.5195 8.28983 23.3301 8.21699 23.097 8.21699Z" fill="#111111"/>
</svg>
